# xmcd CD database file
#
# Track frame offsets:
#	150
#	14679
#	33134
#	51555
#	65264
#
# Disc length: 1090 seconds
#
# Revision: 1
# Processed by: cddbd v1.5.1PL0 Copyright (c) Steve Scherf et al.
# Submitted via: CDex 1.51
#
DISCID=3e044005
DTITLE=The Beautiful Girls - WEIGHT of the WORLD
DYEAR=2005
DGENRE=Rock
TTITLE0=WEIGHT OF THE WORLD
TTITLE1=BLACKBIRD (KUYA'S 6×4 REMIX)
TTITLE2=SUMMER TIME
TTITLE3=I NEED TO GIVE THIS BROKENHEART AWAY
TTITLE4=FREEDOM PT II (VIDEO EDIT)
EXTD=YEAR: 2005
EXTT0=
EXTT1=
EXTT2=
EXTT3=
EXTT4=
PLAYORDER=
